<svg xmlns="http://www.w3.org/2000/svg" version="1.1" xmlns:xlink="http://www.w3.org/1999/xlink" xmlns:svgjs="http://svgjs.dev/svgjs" width="1500" height="1500" viewBox="0 0 1500 1500"><rect width="1500" height="1500" fill="#000000"></rect><g transform="matrix(0.6666666666666666,0,0,0.6666666666666666,249.39393939393938,438.58569500674764)"><svg viewBox="0 0 396 247" data-background-color="#000000" preserveAspectRatio="xMidYMid meet" height="935" width="1500" xmlns="http://www.w3.org/2000/svg" xmlns:xlink="http://www.w3.org/1999/xlink"><g id="tight-bounds" transform="matrix(1,0,0,1,0.2400000000000091,-0.09999999999999432)"><svg viewBox="0 0 395.52 247.2" height="247.2" width="395.52"><rect width="395.52" height="247.2" fill="url(#9ad4ef9f-e226-4a66-b73b-1ed61d243719)" mask="url(#e47e2f15-cee7-409c-8222-f7ce88a6a214)" data-fill-palette-color="tertiary"></rect><g><svg></svg></g><g><svg viewBox="0 0 395.52 247.2" height="247.2" width="395.52"><g transform="matrix(1,0,0,1,75.54432,102.69693810762152)"><svg viewBox="0 0 244.43135999999998 41.80612378475695" height="41.80612378475695" width="244.43135999999998"><g><svg viewBox="0 0 244.43135999999998 41.80612378475695" height="41.80612378475695" width="244.43135999999998"><g><svg viewBox="0 0 244.43135999999998 41.80612378475695" height="41.80612378475695" width="244.43135999999998"><g><svg viewBox="0 0 244.43135999999998 41.80612378475695" height="41.80612378475695" width="244.43135999999998"><g id="textblocktransform"><svg viewBox="0 0 244.43135999999998 41.80612378475695" height="41.80612378475695" width="244.43135999999998" id="textblock"><g><svg viewBox="0 0 244.43135999999998 41.80612378475695" height="41.80612378475695" width="244.43135999999998"><g transform="matrix(1,0,0,1,0,0)"><svg width="244.43135999999998" viewBox="0.81 -30.59 244.06 41.75" height="41.80612378475695" data-palette-color="url(#ce4f23cc-945e-4bf0-9a51-d1a1f4bab8e3)"></svg></g></svg></g></svg></g></svg></g><g></g></svg></g></svg></g></svg></g><g><path d="M79.482 92.828A122.216 122.216 0 0 1 316.038 92.828L312.268 92.828A118.446 118.446 0 0 0 83.252 92.828L79.482 92.828M79.482 154.372A122.216 122.216 0 0 0 316.038 154.372L312.268 154.372A118.446 118.446 0 0 1 83.252 154.372L79.482 154.372" fill="url(#9ad4ef9f-e226-4a66-b73b-1ed61d243719)" stroke="transparent" data-fill-palette-color="tertiary"></path></g></svg></g><defs></defs><mask id="3ff17e4c-746b-4133-8bb3-dc557b864582"><g id="SvgjsG1644"><svg viewBox="0 0 395.52 247.2" height="247.2" width="395.52"><g><svg></svg></g><g><svg viewBox="0 0 395.52 247.2" height="247.2" width="395.52"><g transform="matrix(1,0,0,1,75.54432,102.69693810762152)"><svg viewBox="0 0 244.43135999999998 41.80612378475695" height="41.80612378475695" width="244.43135999999998"><g><svg viewBox="0 0 244.43135999999998 41.80612378475695" height="41.80612378475695" width="244.43135999999998"><g><svg viewBox="0 0 244.43135999999998 41.80612378475695" height="41.80612378475695" width="244.43135999999998"><g><svg viewBox="0 0 244.43135999999998 41.80612378475695" height="41.80612378475695" width="244.43135999999998"><g id="SvgjsG1643"><svg viewBox="0 0 244.43135999999998 41.80612378475695" height="41.80612378475695" width="244.43135999999998" id="SvgjsSvg1642"><g><svg viewBox="0 0 244.43135999999998 41.80612378475695" height="41.80612378475695" width="244.43135999999998"><g transform="matrix(1,0,0,1,0,0)"><svg width="244.43135999999998" viewBox="0.81 -30.59 244.06 41.75" height="41.80612378475695" data-palette-color="url(#ce4f23cc-945e-4bf0-9a51-d1a1f4bab8e3)"><path d="M23-21.02L23-21.02Q23-18.68 22.07-16.96 21.14-15.23 19.7-14.11 18.26-12.99 16.66-12.43 15.06-11.87 13.67-11.87L13.67-11.87Q11.5-11.87 9.99-12.55L9.99-12.55 9.4-14.5Q10.33-14.09 11.13-13.96 11.94-13.84 12.72-13.84L12.72-13.84Q14.06-13.84 15.43-14.53 16.8-15.21 17.71-16.6 18.63-17.99 18.63-20.09L18.63-20.09Q18.63-23.58 16.35-25.23 14.06-26.88 10.69-26.88L10.69-26.88Q8.35-26.88 5.79-26.61 3.22-26.34 1.05-25.95L1.05-25.95 0.81-27.61Q3.08-28.2 6.12-28.58 9.16-28.96 11.99-28.96L11.99-28.96Q16.97-28.96 19.98-26.92 23-24.88 23-21.02ZM12.5 0L1.05 0 1.05-1.22Q2.56-1.54 3.41-1.92 4.25-2.29 4.25-2.59L4.25-2.59 4.25-26.98 8.64-26.98 8.64-2.59Q8.64-2.32 9.4-1.97 10.16-1.61 12.5-1.22L12.5-1.22 12.5 0ZM43.09-20.65L43.09-20.65Q43.28-20.53 43.23-19.76 43.19-18.99 42.98-17.96 42.77-16.92 42.48-15.91 42.19-14.89 41.92-14.28L41.92-14.28 40.67-14.28Q40.23-18.02 38.18-18.02L38.18-18.02Q37.23-18.02 35.84-16.65 34.45-15.28 33.27-11.82L33.27-11.82 33.27-2.59Q33.27-2.27 34.14-1.9 35.01-1.54 37.13-1.22L37.13-1.22 37.13 0 26 0 26-1.22Q29.1-1.9 29.1-2.59L29.1-2.59 29.1-15.21Q29.1-16.67 28.94-17.26 28.78-17.85 28.56-18.04L28.56-18.04Q28.27-18.33 27.76-18.46 27.24-18.58 26-18.65L26-18.65 26-19.82Q27.85-20.17 29.26-20.56 30.66-20.95 32.08-21.56L32.08-21.56 32.93-20.7 33.23-16.36Q34.42-18.53 36.11-20.04 37.79-21.56 39.72-21.56L39.72-21.56Q40.5-21.56 41.39-21.34 42.28-21.12 43.09-20.65ZM65.13-3.37L65.52-2.1Q63.62-0.78 62.08-0.06 60.54 0.66 59.83 0.66L59.83 0.66Q58.98 0.66 58.45-0.5 57.93-1.66 57.93-3.66L57.93-3.66 57.93-15.63Q57.93-17.09 57.21-18.09 56.49-19.09 54.49-19.04L54.49-19.04Q53.19-19.02 52.11-18.21 51.02-17.41 51.17-16.06L51.17-16.06Q51.19-15.84 50.59-15.56 50-15.28 49.15-15.03 48.31-14.77 47.57-14.64 46.82-14.5 46.53-14.58L46.53-14.58 46.16-15.58Q46.85-17.19 48.52-18.54 50.19-19.9 52.34-20.73 54.49-21.56 56.61-21.56L56.61-21.56Q59.32-21.56 60.71-20.17 62.1-18.77 62.1-16.46L62.1-16.46 62.1-4.52Q62.1-2.78 62.98-2.78L62.98-2.78Q63.33-2.78 63.79-2.89 64.25-3 65.13-3.37L65.13-3.37ZM58.15-12.7L58.15-10.82Q55.83-10.42 54.52-10.07 53.22-9.72 52.53-9.34 51.85-8.96 51.39-8.5L51.39-8.5Q50.8-7.89 50.45-7.14 50.09-6.4 50.09-5.4L50.09-5.4Q50.09-3.71 50.93-3.19 51.78-2.66 52.36-2.66L52.36-2.66Q53.56-2.66 54.96-3.3 56.37-3.93 58.15-5.49L58.15-5.49 58.32-3.49Q56.22-1.22 54.12-0.28 52.02 0.66 50.51 0.66L50.51 0.66Q49.36 0.66 48.22 0.15 47.09-0.37 46.35-1.46 45.6-2.56 45.6-4.32L45.6-4.32Q45.6-5.93 46.17-7.04 46.75-8.15 47.58-8.98L47.58-8.98Q48.31-9.72 49.38-10.36 50.46-11.01 52.5-11.58 54.54-12.16 58.15-12.7L58.15-12.7ZM88.32-20.87L88.32-19.65Q87-19.34 86.59-19.06 86.17-18.77 85.93-18.12L85.93-18.12 79.58-1.51Q79.19-0.54 78.09-0.02 76.99 0.49 76.21 0.66L76.21 0.66 68.6-18.12Q68.33-18.7 67.8-19.06 67.28-19.41 66.15-19.65L66.15-19.65 66.15-20.87 75.43-20.87 75.43-19.65Q73.7-19.43 73.21-19.14 72.72-18.85 73.04-18.12L73.04-18.12 78.26-4.96 83.22-18.12Q83.46-18.8 83.06-19.1 82.66-19.41 81.07-19.65L81.07-19.65 81.07-20.87 88.32-20.87ZM98.23-28.32L98.23-28.32Q98.23-26.95 97.35-26.03 96.47-25.1 95.16-25.1L95.16-25.1Q94.06-25.1 93.42-25.68 92.79-26.27 92.79-27.39L92.79-27.39Q92.79-28.78 93.68-29.69 94.57-30.59 95.84-30.59L95.84-30.59Q96.91-30.59 97.57-30.03 98.23-29.47 98.23-28.32ZM100.58 0L90.22 0 90.22-1.22Q93.3-1.83 93.3-2.59L93.3-2.59 93.3-14.84Q93.3-16.38 93.17-17.14 93.03-17.9 92.4-18.2 91.76-18.51 90.22-18.65L90.22-18.65 90.22-19.82Q91.84-20.09 93.5-20.54 95.16-21 96.45-21.56L96.45-21.56 97.5-21.56 97.5-2.59Q97.5-2.32 98.21-1.93 98.92-1.54 100.58-1.22L100.58-1.22 100.58 0ZM111.14-28.32L111.14-28.32Q111.14-26.95 110.27-26.03 109.39-25.1 108.07-25.1L108.07-25.1Q106.97-25.1 106.34-25.68 105.7-26.27 105.7-27.39L105.7-27.39Q105.7-28.78 106.59-29.69 107.48-30.59 108.75-30.59L108.75-30.59Q109.83-30.59 110.49-30.03 111.14-29.47 111.14-28.32ZM110.36-21.56L110.36-2.29Q110.36 1.15 109.7 3.25 109.05 5.35 108 6.62 106.95 7.89 105.75 8.84L105.75 8.84Q104.55 9.79 103.04 10.47 101.53 11.16 100.52 11.16L100.52 11.16Q99.5 11.16 98.5 10.84 97.5 10.52 96.84 10.1 96.18 9.67 96.18 9.4L96.18 9.4Q96.18 9.08 96.81 8.45 97.45 7.81 98.23 7.23 99.01 6.64 99.45 6.45L99.45 6.45Q100.16 7.15 101.09 7.46 102.01 7.76 102.87 7.76L102.87 7.76Q103.7 7.76 104.46 7.06 105.21 6.35 105.7 4.46 106.19 2.56 106.19-0.95L106.19-0.95 106.19-14.84Q106.19-16.38 106.05-17.14 105.92-17.9 105.27-18.2 104.63-18.51 103.09-18.65L103.09-18.65 103.09-19.82Q105.16-20.17 106.45-20.57 107.73-20.97 109.26-21.56L109.26-21.56 110.36-21.56ZM150.42-3.37L150.79-2.1Q149.13-1.03 147.47-0.18 145.81 0.66 145.27 0.66L145.27 0.66Q144.46 0.66 143.89-0.24 143.32-1.15 143.15-3.44L143.15-3.44Q140.34-0.81 138.52-0.07 136.7 0.66 135.26 0.66L135.26 0.66Q133.87 0.66 132.61 0.1 131.35-0.46 130.57-1.95 129.79-3.44 129.79-6.25L129.79-6.25 129.79-15.77Q129.79-17.19 129.65-17.81 129.5-18.43 128.9-18.64 128.3-18.85 126.94-18.97L126.94-18.97 126.94-20.14Q128.82-20.34 130.22-20.65 131.62-20.97 133.26-21.56L133.26-21.56 133.97-20.61 133.97-7.57Q133.97-4.57 134.77-3.53 135.58-2.49 137.07-2.49L137.07-2.49Q138.31-2.49 139.77-3.23 141.22-3.98 143.15-5.88L143.15-5.88 143.15-15.77Q143.15-17.11 142.95-17.77 142.76-18.43 142.11-18.66 141.46-18.9 140.07-18.97L140.07-18.97 140.07-20.14Q141.95-20.34 143.57-20.74 145.2-21.14 146.59-21.56L146.59-21.56 147.32-20.61 147.32-5.96Q147.32-3.27 147.83-2.86L147.83-2.86Q148.08-2.69 148.68-2.8 149.27-2.91 150.42-3.37L150.42-3.37ZM165.68 0.66L165.68 0.66Q164.36 0.66 162.79-0.01 161.21-0.68 159.5-2.05L159.5-2.05 159.5 8.15Q159.5 8.5 160.33 8.85 161.16 9.2 163.29 9.55L163.29 9.55 163.29 10.77 152.23 10.77 152.23 9.55Q153.72 9.18 154.52 8.86 155.33 8.54 155.33 8.15L155.33 8.15 155.33-15.77Q155.33-16.89 155.14-17.49 154.96-18.09 154.31-18.33 153.67-18.58 152.23-18.65L152.23-18.65 152.23-19.82Q154.2-20.17 155.52-20.56 156.84-20.95 158.31-21.56L158.31-21.56 159.16-20.7 159.36-16.92Q161.7-19.43 163.73-20.5 165.75-21.56 167.05-21.56L167.05-21.56Q170.1-21.56 172.21-18.87 174.32-16.19 174.32-11.11L174.32-11.11Q174.32-9.06 173.55-6.98 172.78-4.91 171.53-3.17 170.27-1.44 168.74-0.39 167.22 0.66 165.68 0.66ZM165.07-18.36L165.07-18.36Q164.26-18.36 162.87-17.53 161.48-16.7 159.5-14.31L159.5-14.31 159.5-4.91Q161.65-3.44 163.02-3.02 164.38-2.59 165.56-2.59L165.56-2.59Q167.68-2.59 169.08-4.37 170.49-6.15 170.49-9.55L170.49-9.55Q170.49-12.28 169.71-14.25 168.93-16.21 167.68-17.29 166.44-18.36 165.07-18.36ZM194.22-20.65L194.22-20.65Q194.41-20.53 194.36-19.76 194.31-18.99 194.11-17.96 193.9-16.92 193.61-15.91 193.31-14.89 193.04-14.28L193.04-14.28 191.8-14.28Q191.36-18.02 189.31-18.02L189.31-18.02Q188.36-18.02 186.96-16.65 185.57-15.28 184.4-11.82L184.4-11.82 184.4-2.59Q184.4-2.27 185.27-1.9 186.13-1.54 188.26-1.22L188.26-1.22 188.26 0 177.13 0 177.13-1.22Q180.23-1.9 180.23-2.59L180.23-2.59 180.23-15.21Q180.23-16.67 180.07-17.26 179.91-17.85 179.69-18.04L179.69-18.04Q179.4-18.33 178.88-18.46 178.37-18.58 177.13-18.65L177.13-18.65 177.13-19.82Q178.98-20.17 180.39-20.56 181.79-20.95 183.21-21.56L183.21-21.56 184.06-20.7 184.35-16.36Q185.55-18.53 187.23-20.04 188.92-21.56 190.85-21.56L190.85-21.56Q191.63-21.56 192.52-21.34 193.41-21.12 194.22-20.65ZM215.04-12.43L215.04-12.43Q214.65-11.99 213.84-11.54 213.04-11.08 212.3-10.79L212.3-10.79 199.14-10.79 199.19-13.01 209.84-13.01Q210.35-13.01 210.52-13.18 210.69-13.35 210.69-13.82L210.69-13.82Q210.69-14.67 210.34-15.91 209.98-17.14 209.06-18.1 208.13-19.07 206.35-19.07L206.35-19.07Q203.73-19.07 202.34-16.82 200.95-14.58 200.95-11.08L200.95-11.08Q200.95-8.76 201.7-6.84 202.44-4.91 203.84-3.75 205.25-2.59 207.2-2.59L207.2-2.59Q208.15-2.59 209.04-2.76 209.94-2.93 211.1-3.55 212.26-4.17 213.96-5.49L213.96-5.49Q214.23-5.35 214.53-4.94 214.82-4.54 214.92-4.37L214.92-4.37Q212.89-2.22 211.41-1.15 209.94-0.07 208.61 0.29 207.27 0.66 205.64 0.66L205.64 0.66Q203.25 0.66 201.21-0.63 199.17-1.93 197.95-4.28 196.73-6.64 196.73-9.81L196.73-9.81Q196.73-12.84 197.97-15.43 199.22-18.02 201.54-19.65L201.54-19.65Q202.61-20.41 204.11-20.98 205.61-21.56 207.03-21.56L207.03-21.56Q209.98-21.56 211.74-20.15 213.5-18.75 214.27-16.65 215.04-14.55 215.04-12.43ZM231.66-4.3L232.42-2.95Q229.93-1.12 227.87-0.23 225.8 0.66 224.63 0.66L224.63 0.66Q222.92 0.66 221.66-0.68 220.41-2.03 220.41-5.15L220.41-5.15 220.41-18.48 217.55-18.48 217.04-19.17 218.77-20.87 220.41-20.87 220.41-26.05 223.8-28.81 224.58-28.17 224.58-20.87 231.71-20.87 232.42-20.14Q232-19.48 231.31-18.71 230.61-17.94 230.17-17.7L230.17-17.7Q229.64-17.97 228.54-18.23 227.44-18.48 225.88-18.48L225.88-18.48 224.58-18.48 224.58-7.15Q224.58-4.61 225.12-3.66 225.66-2.71 226.78-2.71L226.78-2.71Q227.58-2.71 228.71-3.03 229.83-3.34 231.66-4.3L231.66-4.3ZM242.52-28.32L242.52-28.32Q242.52-26.95 241.64-26.03 240.77-25.1 239.45-25.1L239.45-25.1Q238.35-25.1 237.71-25.68 237.08-26.27 237.08-27.39L237.08-27.39Q237.08-28.78 237.97-29.69 238.86-30.59 240.13-30.59L240.13-30.59Q241.21-30.59 241.86-30.03 242.52-29.47 242.52-28.32ZM244.87 0L234.52 0 234.52-1.22Q237.59-1.83 237.59-2.59L237.59-2.59 237.59-14.84Q237.59-16.38 237.46-17.14 237.32-17.9 236.69-18.2 236.05-18.51 234.52-18.65L234.52-18.65 234.52-19.82Q236.13-20.09 237.79-20.54 239.45-21 240.74-21.56L240.74-21.56 241.79-21.56 241.79-2.59Q241.79-2.32 242.5-1.93 243.21-1.54 244.87-1.22L244.87-1.22 244.87 0Z" opacity="1" transform="matrix(1,0,0,1,0,0)" fill="white" class="wordmark-text-0" id="SvgjsPath1641"></path></svg></g></svg></g></svg></g></svg></g><g></g></svg></g></svg></g></svg></g><g><path d="M79.482 92.828A122.216 122.216 0 0 1 316.038 92.828L312.268 92.828A118.446 118.446 0 0 0 83.252 92.828L79.482 92.828M79.482 154.372A122.216 122.216 0 0 0 316.038 154.372L312.268 154.372A118.446 118.446 0 0 1 83.252 154.372L79.482 154.372" fill="black" stroke="transparent"></path></g></svg></g><defs><mask></mask></defs></svg><rect width="395.52" height="247.2" fill="black" stroke="none" visibility="hidden"></rect></g></mask><linearGradient x1="0" x2="1" y1="0.578" y2="0.595" id="ce4f23cc-945e-4bf0-9a51-d1a1f4bab8e3"><stop stop-color="#6ee2f5" offset="0"></stop><stop stop-color="#6454f0" offset="1"></stop></linearGradient><rect width="395.52" height="247.2" fill="url(#ce4f23cc-945e-4bf0-9a51-d1a1f4bab8e3)" mask="url(#3ff17e4c-746b-4133-8bb3-dc557b864582)" data-fill-palette-color="primary"></rect><mask id="e47e2f15-cee7-409c-8222-f7ce88a6a214"><g id="SvgjsG1667"><svg viewBox="0 0 395.52 247.2" height="247.2" width="395.52"><g><svg></svg></g><g><svg viewBox="0 0 395.52 247.2" height="247.2" width="395.52"><g transform="matrix(1,0,0,1,75.54432,102.69693810762152)"><svg viewBox="0 0 244.43135999999998 41.80612378475695" height="41.80612378475695" width="244.43135999999998"><g><svg viewBox="0 0 244.43135999999998 41.80612378475695" height="41.80612378475695" width="244.43135999999998"><g><svg viewBox="0 0 244.43135999999998 41.80612378475695" height="41.80612378475695" width="244.43135999999998"><g><svg viewBox="0 0 244.43135999999998 41.80612378475695" height="41.80612378475695" width="244.43135999999998"><g id="SvgjsG1666"><svg viewBox="0 0 244.43135999999998 41.80612378475695" height="41.80612378475695" width="244.43135999999998" id="SvgjsSvg1665"><g><svg viewBox="0 0 244.43135999999998 41.80612378475695" height="41.80612378475695" width="244.43135999999998"><g transform="matrix(1,0,0,1,0,0)"><svg width="244.43135999999998" viewBox="0.81 -30.59 244.06 41.75" height="41.80612378475695" data-palette-color="url(#ce4f23cc-945e-4bf0-9a51-d1a1f4bab8e3)"></svg></g></svg></g></svg></g></svg></g><g></g></svg></g></svg></g></svg></g><g><path d="M79.482 92.828A122.216 122.216 0 0 1 316.038 92.828L312.268 92.828A118.446 118.446 0 0 0 83.252 92.828L79.482 92.828M79.482 154.372A122.216 122.216 0 0 0 316.038 154.372L312.268 154.372A118.446 118.446 0 0 1 83.252 154.372L79.482 154.372" fill="white" stroke="transparent"></path></g></svg></g><defs><mask></mask></defs><mask><g id="SvgjsG1664"><svg viewBox="0 0 395.52 247.2" height="247.2" width="395.52"><g><svg></svg></g><g><svg viewBox="0 0 395.52 247.2" height="247.2" width="395.52"><g transform="matrix(1,0,0,1,75.54432,102.69693810762152)"><svg viewBox="0 0 244.43135999999998 41.80612378475695" height="41.80612378475695" width="244.43135999999998"><g><svg viewBox="0 0 244.43135999999998 41.80612378475695" height="41.80612378475695" width="244.43135999999998"><g><svg viewBox="0 0 244.43135999999998 41.80612378475695" height="41.80612378475695" width="244.43135999999998"><g><svg viewBox="0 0 244.43135999999998 41.80612378475695" height="41.80612378475695" width="244.43135999999998"><g id="SvgjsG1663"><svg viewBox="0 0 244.43135999999998 41.80612378475695" height="41.80612378475695" width="244.43135999999998" id="SvgjsSvg1662"><g><svg viewBox="0 0 244.43135999999998 41.80612378475695" height="41.80612378475695" width="244.43135999999998"><g transform="matrix(1,0,0,1,0,0)"><svg width="244.43135999999998" viewBox="0.81 -30.59 244.06 41.75" height="41.80612378475695" data-palette-color="url(#ce4f23cc-945e-4bf0-9a51-d1a1f4bab8e3)"><path d="M23-21.02L23-21.02Q23-18.68 22.07-16.96 21.14-15.23 19.7-14.11 18.26-12.99 16.66-12.43 15.06-11.87 13.67-11.87L13.67-11.87Q11.5-11.87 9.99-12.55L9.99-12.55 9.4-14.5Q10.33-14.09 11.13-13.96 11.94-13.84 12.72-13.84L12.72-13.84Q14.06-13.84 15.43-14.53 16.8-15.21 17.71-16.6 18.63-17.99 18.63-20.09L18.63-20.09Q18.63-23.58 16.35-25.23 14.06-26.88 10.69-26.88L10.69-26.88Q8.35-26.88 5.79-26.61 3.22-26.34 1.05-25.95L1.05-25.95 0.81-27.61Q3.08-28.2 6.12-28.58 9.16-28.96 11.99-28.96L11.99-28.96Q16.97-28.96 19.98-26.92 23-24.88 23-21.02ZM12.5 0L1.05 0 1.05-1.22Q2.56-1.54 3.41-1.92 4.25-2.29 4.25-2.59L4.25-2.59 4.25-26.98 8.64-26.98 8.64-2.59Q8.64-2.32 9.4-1.97 10.16-1.61 12.5-1.22L12.5-1.22 12.5 0ZM43.09-20.65L43.09-20.65Q43.28-20.53 43.23-19.76 43.19-18.99 42.98-17.96 42.77-16.92 42.48-15.91 42.19-14.89 41.92-14.28L41.92-14.28 40.67-14.28Q40.23-18.02 38.18-18.02L38.18-18.02Q37.23-18.02 35.84-16.65 34.45-15.28 33.27-11.82L33.27-11.82 33.27-2.59Q33.27-2.27 34.14-1.9 35.01-1.54 37.13-1.22L37.13-1.22 37.13 0 26 0 26-1.22Q29.1-1.9 29.1-2.59L29.1-2.59 29.1-15.21Q29.1-16.67 28.94-17.26 28.78-17.85 28.56-18.04L28.56-18.04Q28.27-18.33 27.76-18.46 27.24-18.58 26-18.65L26-18.65 26-19.82Q27.85-20.17 29.26-20.56 30.66-20.95 32.08-21.56L32.08-21.56 32.93-20.7 33.23-16.36Q34.42-18.53 36.11-20.04 37.79-21.56 39.72-21.56L39.72-21.56Q40.5-21.56 41.39-21.34 42.28-21.12 43.09-20.65ZM65.13-3.37L65.52-2.1Q63.62-0.78 62.08-0.06 60.54 0.66 59.83 0.66L59.83 0.66Q58.98 0.66 58.45-0.5 57.93-1.66 57.93-3.66L57.93-3.66 57.93-15.63Q57.93-17.09 57.21-18.09 56.49-19.09 54.49-19.04L54.49-19.04Q53.19-19.02 52.11-18.21 51.02-17.41 51.17-16.06L51.17-16.06Q51.19-15.84 50.59-15.56 50-15.28 49.15-15.03 48.31-14.77 47.57-14.64 46.82-14.5 46.53-14.58L46.53-14.58 46.16-15.58Q46.85-17.19 48.52-18.54 50.19-19.9 52.34-20.73 54.49-21.56 56.61-21.56L56.61-21.56Q59.32-21.56 60.71-20.17 62.1-18.77 62.1-16.46L62.1-16.46 62.1-4.52Q62.1-2.78 62.98-2.78L62.98-2.78Q63.33-2.78 63.79-2.89 64.25-3 65.13-3.37L65.13-3.37ZM58.15-12.7L58.15-10.82Q55.83-10.42 54.52-10.07 53.22-9.72 52.53-9.34 51.85-8.96 51.39-8.5L51.39-8.5Q50.8-7.89 50.45-7.14 50.09-6.4 50.09-5.4L50.09-5.4Q50.09-3.71 50.93-3.19 51.78-2.66 52.36-2.66L52.36-2.66Q53.56-2.66 54.96-3.3 56.37-3.93 58.15-5.49L58.15-5.49 58.32-3.49Q56.22-1.22 54.12-0.28 52.02 0.66 50.51 0.66L50.51 0.66Q49.36 0.66 48.22 0.15 47.09-0.37 46.35-1.46 45.6-2.56 45.6-4.32L45.6-4.32Q45.6-5.93 46.17-7.04 46.75-8.15 47.58-8.98L47.58-8.98Q48.31-9.72 49.38-10.36 50.46-11.01 52.5-11.58 54.54-12.16 58.15-12.7L58.15-12.7ZM88.32-20.87L88.32-19.65Q87-19.34 86.59-19.06 86.17-18.77 85.93-18.12L85.93-18.12 79.58-1.51Q79.19-0.54 78.09-0.02 76.99 0.49 76.21 0.66L76.21 0.66 68.6-18.12Q68.33-18.7 67.8-19.06 67.28-19.41 66.15-19.65L66.15-19.65 66.15-20.87 75.43-20.87 75.43-19.65Q73.7-19.43 73.21-19.14 72.72-18.85 73.04-18.12L73.04-18.12 78.26-4.96 83.22-18.12Q83.46-18.8 83.06-19.1 82.66-19.41 81.07-19.65L81.07-19.65 81.07-20.87 88.32-20.87ZM98.23-28.32L98.23-28.32Q98.23-26.95 97.35-26.03 96.47-25.1 95.16-25.1L95.16-25.1Q94.06-25.1 93.42-25.68 92.79-26.27 92.79-27.39L92.79-27.39Q92.79-28.78 93.68-29.69 94.57-30.59 95.84-30.59L95.84-30.59Q96.91-30.59 97.57-30.03 98.23-29.47 98.23-28.32ZM100.58 0L90.22 0 90.22-1.22Q93.3-1.83 93.3-2.59L93.3-2.59 93.3-14.84Q93.3-16.38 93.17-17.14 93.03-17.9 92.4-18.2 91.76-18.51 90.22-18.65L90.22-18.65 90.22-19.82Q91.84-20.09 93.5-20.54 95.16-21 96.45-21.56L96.45-21.56 97.5-21.56 97.5-2.59Q97.5-2.32 98.21-1.93 98.92-1.54 100.58-1.22L100.58-1.22 100.58 0ZM111.14-28.32L111.14-28.32Q111.14-26.95 110.27-26.03 109.39-25.1 108.07-25.1L108.07-25.1Q106.97-25.1 106.34-25.68 105.7-26.27 105.7-27.39L105.7-27.39Q105.7-28.78 106.59-29.69 107.48-30.59 108.75-30.59L108.75-30.59Q109.83-30.59 110.49-30.03 111.14-29.47 111.14-28.32ZM110.36-21.56L110.36-2.29Q110.36 1.15 109.7 3.25 109.05 5.35 108 6.62 106.95 7.89 105.75 8.84L105.75 8.84Q104.55 9.79 103.04 10.47 101.53 11.16 100.52 11.16L100.52 11.16Q99.5 11.16 98.5 10.84 97.5 10.52 96.84 10.1 96.18 9.67 96.18 9.4L96.18 9.4Q96.18 9.08 96.81 8.45 97.45 7.81 98.23 7.23 99.01 6.64 99.45 6.45L99.45 6.45Q100.16 7.15 101.09 7.46 102.01 7.76 102.87 7.76L102.87 7.76Q103.7 7.76 104.46 7.06 105.21 6.35 105.7 4.46 106.19 2.56 106.19-0.95L106.19-0.95 106.19-14.84Q106.19-16.38 106.05-17.14 105.92-17.9 105.27-18.2 104.63-18.51 103.09-18.65L103.09-18.65 103.09-19.82Q105.16-20.17 106.45-20.57 107.73-20.97 109.26-21.56L109.26-21.56 110.36-21.56ZM150.42-3.37L150.79-2.1Q149.13-1.03 147.47-0.18 145.81 0.66 145.27 0.66L145.27 0.66Q144.46 0.66 143.89-0.24 143.32-1.15 143.15-3.44L143.15-3.44Q140.34-0.81 138.52-0.07 136.7 0.66 135.26 0.66L135.26 0.66Q133.87 0.66 132.61 0.1 131.35-0.46 130.57-1.95 129.79-3.44 129.79-6.25L129.79-6.25 129.79-15.77Q129.79-17.19 129.65-17.81 129.5-18.43 128.9-18.64 128.3-18.85 126.94-18.97L126.94-18.97 126.94-20.14Q128.82-20.34 130.22-20.65 131.62-20.97 133.26-21.56L133.26-21.56 133.97-20.61 133.97-7.57Q133.97-4.57 134.77-3.53 135.58-2.49 137.07-2.49L137.07-2.49Q138.31-2.49 139.77-3.23 141.22-3.98 143.15-5.88L143.15-5.88 143.15-15.77Q143.15-17.11 142.95-17.77 142.76-18.43 142.11-18.66 141.46-18.9 140.07-18.97L140.07-18.97 140.07-20.14Q141.95-20.34 143.57-20.74 145.2-21.14 146.59-21.56L146.59-21.56 147.32-20.61 147.32-5.96Q147.32-3.27 147.83-2.86L147.83-2.86Q148.08-2.69 148.68-2.8 149.27-2.91 150.42-3.37L150.42-3.37ZM165.68 0.66L165.68 0.66Q164.36 0.66 162.79-0.01 161.21-0.68 159.5-2.05L159.5-2.05 159.5 8.15Q159.5 8.5 160.33 8.85 161.16 9.2 163.29 9.55L163.29 9.55 163.29 10.77 152.23 10.77 152.23 9.55Q153.72 9.18 154.52 8.86 155.33 8.54 155.33 8.15L155.33 8.15 155.33-15.77Q155.33-16.89 155.14-17.49 154.96-18.09 154.31-18.33 153.67-18.58 152.23-18.65L152.23-18.65 152.23-19.82Q154.2-20.17 155.52-20.56 156.84-20.95 158.31-21.56L158.31-21.56 159.16-20.7 159.36-16.92Q161.7-19.43 163.73-20.5 165.75-21.56 167.05-21.56L167.05-21.56Q170.1-21.56 172.21-18.87 174.32-16.19 174.32-11.11L174.32-11.11Q174.32-9.06 173.55-6.98 172.78-4.91 171.53-3.17 170.27-1.44 168.74-0.39 167.22 0.66 165.68 0.66ZM165.07-18.36L165.07-18.36Q164.26-18.36 162.87-17.53 161.48-16.7 159.5-14.31L159.5-14.31 159.5-4.91Q161.65-3.44 163.02-3.02 164.38-2.59 165.56-2.59L165.56-2.59Q167.68-2.59 169.08-4.37 170.49-6.15 170.49-9.55L170.49-9.55Q170.49-12.28 169.71-14.25 168.93-16.21 167.68-17.29 166.44-18.36 165.07-18.36ZM194.22-20.65L194.22-20.65Q194.41-20.53 194.36-19.76 194.31-18.99 194.11-17.96 193.9-16.92 193.61-15.91 193.31-14.89 193.04-14.28L193.04-14.28 191.8-14.28Q191.36-18.02 189.31-18.02L189.31-18.02Q188.36-18.02 186.96-16.65 185.57-15.28 184.4-11.82L184.4-11.82 184.4-2.59Q184.4-2.27 185.27-1.9 186.13-1.54 188.26-1.22L188.26-1.22 188.26 0 177.13 0 177.13-1.22Q180.23-1.9 180.23-2.59L180.23-2.59 180.23-15.21Q180.23-16.67 180.07-17.26 179.91-17.85 179.69-18.04L179.69-18.04Q179.4-18.33 178.88-18.46 178.37-18.58 177.13-18.65L177.13-18.65 177.13-19.82Q178.98-20.17 180.39-20.56 181.79-20.95 183.21-21.56L183.21-21.56 184.06-20.7 184.35-16.36Q185.55-18.53 187.23-20.04 188.92-21.56 190.85-21.56L190.85-21.56Q191.63-21.56 192.52-21.34 193.41-21.12 194.22-20.65ZM215.04-12.43L215.04-12.43Q214.65-11.99 213.84-11.54 213.04-11.08 212.3-10.79L212.3-10.79 199.14-10.79 199.19-13.01 209.84-13.01Q210.35-13.01 210.52-13.18 210.69-13.35 210.69-13.82L210.69-13.82Q210.69-14.67 210.34-15.91 209.98-17.14 209.06-18.1 208.13-19.07 206.35-19.07L206.35-19.07Q203.73-19.07 202.34-16.82 200.95-14.58 200.95-11.08L200.95-11.08Q200.95-8.76 201.7-6.84 202.44-4.91 203.84-3.75 205.25-2.59 207.2-2.59L207.2-2.59Q208.15-2.59 209.04-2.76 209.94-2.93 211.1-3.55 212.26-4.17 213.96-5.49L213.96-5.49Q214.23-5.35 214.53-4.94 214.82-4.54 214.92-4.37L214.92-4.37Q212.89-2.22 211.41-1.15 209.94-0.07 208.61 0.29 207.27 0.66 205.64 0.66L205.64 0.66Q203.25 0.66 201.21-0.63 199.17-1.93 197.95-4.28 196.73-6.64 196.73-9.81L196.73-9.81Q196.73-12.84 197.97-15.43 199.22-18.02 201.54-19.65L201.54-19.65Q202.61-20.41 204.11-20.98 205.61-21.56 207.03-21.56L207.03-21.56Q209.98-21.56 211.74-20.15 213.5-18.75 214.27-16.65 215.04-14.55 215.04-12.43ZM231.66-4.3L232.42-2.95Q229.93-1.12 227.87-0.23 225.8 0.66 224.63 0.66L224.63 0.66Q222.92 0.66 221.66-0.68 220.41-2.03 220.41-5.15L220.41-5.15 220.41-18.48 217.55-18.48 217.04-19.17 218.77-20.87 220.41-20.87 220.41-26.05 223.8-28.81 224.58-28.17 224.58-20.87 231.71-20.87 232.42-20.14Q232-19.48 231.31-18.71 230.61-17.94 230.17-17.7L230.17-17.7Q229.64-17.97 228.54-18.23 227.44-18.48 225.88-18.48L225.88-18.48 224.58-18.48 224.58-7.15Q224.58-4.61 225.12-3.66 225.66-2.71 226.78-2.71L226.78-2.71Q227.58-2.71 228.71-3.03 229.83-3.34 231.66-4.3L231.66-4.3ZM242.52-28.32L242.52-28.32Q242.52-26.95 241.64-26.03 240.77-25.1 239.45-25.1L239.45-25.1Q238.35-25.1 237.71-25.68 237.08-26.27 237.08-27.39L237.08-27.39Q237.08-28.78 237.97-29.69 238.86-30.59 240.13-30.59L240.13-30.59Q241.21-30.59 241.86-30.03 242.52-29.47 242.52-28.32ZM244.87 0L234.52 0 234.52-1.22Q237.59-1.83 237.59-2.59L237.59-2.59 237.59-14.84Q237.59-16.38 237.46-17.14 237.32-17.9 236.69-18.2 236.05-18.51 234.52-18.65L234.52-18.65 234.52-19.82Q236.13-20.09 237.79-20.54 239.45-21 240.74-21.56L240.74-21.56 241.79-21.56 241.79-2.59Q241.79-2.32 242.5-1.93 243.21-1.54 244.87-1.22L244.87-1.22 244.87 0Z" opacity="1" transform="matrix(1,0,0,1,0,0)" fill="black" class="wordmark-text-0" id="SvgjsPath1661"></path></svg></g></svg></g></svg></g></svg></g><g></g></svg></g></svg></g></svg></g><g><path d="M79.482 92.828A122.216 122.216 0 0 1 316.038 92.828L312.268 92.828A118.446 118.446 0 0 0 83.252 92.828L79.482 92.828M79.482 154.372A122.216 122.216 0 0 0 316.038 154.372L312.268 154.372A118.446 118.446 0 0 1 83.252 154.372L79.482 154.372" fill="black" stroke="transparent"></path></g></svg></g><defs><mask></mask></defs></svg><rect width="395.52" height="247.2" fill="black" stroke="none" visibility="hidden"></rect></g></mask></svg><rect width="395.52" height="247.2" fill="black" stroke="none" visibility="hidden"></rect></g></mask><linearGradient x1="0" x2="1" y1="0.578" y2="0.595" id="9ad4ef9f-e226-4a66-b73b-1ed61d243719"><stop stop-color="#6ee2f5" offset="0"></stop><stop stop-color="#6454f0" offset="1"></stop></linearGradient></svg><rect width="395.52" height="247.2" fill="none" stroke="none" visibility="hidden"></rect></g></svg></g></svg>